:SAMPLES-PER-SECOND 30
:FULLY-SPECIFIED
:DEGREES
779
root  13.7634 40.7448 8.5092 107.564 88.1863 106.118
RightUpLeg  -5.08906 -11.3368 -9.03657
RightLeg  8.30615 -9.39346 2.63032
RightFoot  -0.294737 -0.0470177 0.497505
RightToes  0.000481921 0.542163 -0.142578
Spine  11.0075 -0.90254 -1.52916
Spine1  3.15887 -1.54231 2.29065
HEad  6.52793 0.877739 1.91378
LeftShoulder1  9.74643 -13.1656 -51.0379
LeftArm  -22.0439 31.2448 -21.409
LeftForeArm  170.472 -41.8584 -170.852
LeftHand  -0.25398 0.0180481 5.50724
RightShoulder  5.72055 8.7577 40.4991
RightArm  -5.42459 -21.2362 30.8341
RightForeArm  158.222 47.1467 168.281
RightHand  -0.223374 -0.96018 -5.7353
LeftUpLeg  -2.00453 6.23935 4.68939
LeftLeg  2.10348 16.7267 -4.09229
LeftFoot  1.35495 0.277184 -2.53032
LeftToes  1.06247e-005 4.65869e-005 -8.65511e-006
780
root  13.5635 40.7399 8.49344 111.776 87.9984 110.412
RightUpLeg  -5.28717 -11.4555 -9.2013
RightLeg  8.31538 -9.47732 2.66919
RightFoot  -0.0862603 -0.0356585 0.348777
RightToes  0.000481921 0.542163 -0.142578
Spine  10.5346 -1.1077 0.493162
Spine1  3.48305 -1.07444 -0.155468
HEad  6.8561 0.141135 2.16117
LeftShoulder1  10.5827 -14.585 -51.0768
LeftArm  -17.1535 14.7072 -16.9431
LeftForeArm  170.865 -47.4866 -168.997
LeftHand  -0.25398 0.0180481 5.50724
RightShoulder  6.28932 10.097 40.1075
RightArm  -6.03261 -5.56682 27.2405
RightForeArm  154.386 53.9063 165.044
RightHand  -0.211047 -1.96844 -6.72831
LeftUpLeg  -2.13493 6.22368 4.558
LeftLeg  1.85122 16.5985 -4.2937
LeftFoot  1.63776 0.27914 -2.51618
LeftToes  1.06247e-005 4.65869e-005 -8.65511e-006
781
root  13.3204 40.7505 8.48661 118.106 87.7968 117.021
RightUpLeg  -5.21675 -11.3353 -9.31528
RightLeg  8.10013 -9.8711 2.65961
RightFoot  0.313675 -0.0338898 0.335452
RightToes  0.000481921 0.542163 -0.142578
Spine  10.8261 -1.34128 1.68731
Spine1  3.07331 -0.885554 -1.73972
HEad  7.23353 -0.369854 2.53773
LeftShoulder1  10.6044 -15.4045 -48.9629
LeftArm  -15.6628 -2.99043 -17.4205
LeftForeArm  171.423 -55.7787 -165.55
LeftHand  -0.25398 0.0180481 5.50724
RightShoulder  6.12636 10.4525 37.8434
RightArm  -7.91043 11.04 27.8575
RightForeArm  142.039 64.8809 155.912
RightHand  -0.388437 -0.872335 -9.71386
LeftUpLeg  -2.00917 6.09715 4.42589
LeftLeg  1.28372 16.4679 -4.44464
LeftFoot  2.19368 0.276184 -2.43231
LeftToes  1.06247e-005 4.65869e-005 -8.65511e-006
782
root  13.0692 40.768 8.4907 126.818 87.5627 125.868
RightUpLeg  -5.2019 -11.1166 -9.32473
RightLeg  7.69516 -10.5122 2.69004
RightFoot  0.806643 -0.0338609 0.371011
RightToes  0.000481921 0.542163 -0.142578
Spine  10.9261 -1.44927 2.15155
Spine1  2.41958 -0.873372 -2.20102
HEad  7.99875 -0.89236 2.55049
LeftShoulder1  10.3236 -16.0561 -46.0266
LeftArm  -14.5736 -20.3945 -19.5413
LeftForeArm  167.593 -67.6495 -155.664
LeftHand  -0.25398 0.0180481 5.50724
RightShoulder  5.58879 10.3476 34.3946
RightArm  -9.00555 26.98 30.2632
RightForeArm  104.963 77.2272 119.478
RightHand  -0.815797 2.29037 -12.6016
LeftUpLeg  -2.05308 5.91265 4.31724
LeftLeg  0.634661 16.2818 -4.53385
LeftFoot  2.87683 0.266936 -2.28099
LeftToes  1.06247e-005 4.65869e-005 -8.65511e-006
783
root  12.8178 40.7728 8.49986 133.405 87.3661 132.726
RightUpLeg  -5.08857 -11.0529 -9.34322
RightLeg  7.38999 -10.9013 2.80517
RightFoot  1.20076 -0.0190654 0.248246
RightToes  0.000481921 0.542163 -0.142578
Spine  10.6015 -1.38503 2.62202
Spine1  2.42887 -0.725774 -2.44621
HEad  8.99292 -1.55271 2.28678
LeftShoulder1  10.1592 -17.1206 -42.8143
LeftArm  -13.9034 -37.0958 -20.9833
LeftForeArm  113.125 -79.4932 -96.2079
LeftHand  -0.25398 0.0180481 5.50724
RightShoulder  5.16873 10.6549 30.5617
RightArm  -9.85528 42.5895 31.8854
RightForeArm  25.0173 70.3258 33.3943
RightHand  -1.43434 6.3082 -14.5218
LeftUpLeg  -2.11726 5.83592 4.29512
LeftLeg  0.379789 16.0456 -4.55244
LeftFoot  3.36981 0.252723 -2.11614
LeftToes  1.06247e-005 4.65869e-005 -8.65511e-006
784
root  12.5375 40.7516 8.50057 129.143 87.4696 129.09
RightUpLeg  -5.02999 -11.2971 -9.42728
RightLeg  7.65205 -10.418 2.86255
RightFoot  1.43265 0.0106593 -0.00790732
RightToes  0.000481921 0.542163 -0.142578
Spine  11.1141 -1.16119 3.89093
Spine1  2.29723 -0.0987569 -3.81107
HEad  9.84271 -2.39394 2.24401
LeftShoulder1  9.71532 -18.672 -37.6549
LeftArm  -13.4089 -53.445 -22.3561
LeftForeArm  33.8134 -59.2203 -15.428
LeftHand  -0.25398 0.0180481 5.50724
RightShoulder  4.82862 11.3858 26.3673
RightArm  -12.0616 58.584 31.9595
RightForeArm  10.9888 40.6217 8.87012
RightHand  -2.31982 10.5464 -17.2416
LeftUpLeg  -2.06369 5.9508 4.33348
LeftLeg  0.807607 16.1269 -4.50412
LeftFoot  3.51002 0.235231 -1.96835
LeftToes  1.06247e-005 4.65869e-005 -8.65511e-006
785
root  12.291 40.7254 8.48419 108.782 87.7814 109.041
RightUpLeg  -5.6141 -11.6459 -9.43135
RightLeg  8.26658 -9.264 2.77112
RightFoot  1.65316 0.0249973 -0.120735
RightToes  0.000481921 0.542163 -0.142578
Spine  12.5699 -0.928311 5.66627
Spine1  0.821541 0.751797 -6.12026
HEad  10.6209 -2.86439 2.31745
LeftShoulder1  8.54461 -19.8675 -30.4174
LeftArm  -13.3166 -65.8731 -23.9186
LeftForeArm  22.7539 -28.3548 -4.95992
LeftHand  -0.25398 0.0180481 5.50724
RightShoulder  4.26894 11.838 21.497
RightArm  -18.8521 71.3968 32.3574
RightForeArm  17.1558 9.03343 3.78967
RightHand  -2.77623 12.3331 -18.5041
LeftUpLeg  -2.20501 6.09104 4.29915
LeftLeg  1.27927 16.8649 -4.51164
LeftFoot  3.53329 0.222519 -1.86917
LeftToes  1.06247e-005 4.65869e-005 -8.65511e-006
786
root  12.234 40.7335 8.4526 77.8139 87.7144 77.4684
RightUpLeg  -6.70965 -11.5662 -9.28466
RightLeg  8.3083 -8.3381 2.72782
RightFoot  1.97936 0.00991636 0.0303213
RightToes  0.000481921 0.542163 -0.142578
Spine  13.1913 -0.777596 6.85974
Spine1  -1.25507 1.23374 -7.82151
HEad  11.6903 -2.21282 2.0239
LeftShoulder1  7.29085 -19.6121 -25.2926
LeftArm  -18.94 -70.0557 -22.8199
LeftForeArm  25.2342 -14.4555 -5.03464
LeftHand  -0.25398 0.0180481 5.50724
RightShoulder  3.54753 11.6317 16.7825
RightArm  -27.8492 75.637 35.6481
RightForeArm  21.0193 -5.56167 1.1535
RightHand  -2.05899 10.3096 -15.5949
LeftUpLeg  -2.55311 6.05407 4.1445
LeftLeg  0.826857 18.1356 -4.73222
LeftFoot  3.69091 0.225936 -1.88221
LeftToes  1.06247e-005 4.65869e-005 -8.65511e-006
787
root  12.4235 40.7748 8.41187 53.7286 87.1498 52.4012
RightUpLeg  -7.31076 -10.9679 -9.15203
RightLeg  7.40175 -7.89319 2.93607
RightFoot  2.27576 -0.0111685 0.223965
RightToes  0.000481921 0.542163 -0.142578
Spine  12.27 -0.625891 7.42957
Spine1  -2.39931 1.41235 -8.55652
HEad  12.9114 -0.81237 1.62206
LeftShoulder1  7.04887 -18.3534 -26.0664
LeftArm  -18.6029 -65.0568 -23.0622
LeftForeArm  27.6102 -25.003 -4.27175
LeftHand  -0.25398 0.0180481 5.50724
RightShoulder  3.19073 11.2145 14.8782
RightArm  -21.7924 69.6135 42.8078
RightForeArm  7.85044 5.36088 2.5685
RightHand  -1.71417 9.29987 -13.9562
LeftUpLeg  -2.55832 5.90287 4.01804
LeftLeg  -0.389658 19.4633 -5.10008
LeftFoot  3.8124 0.244404 -2.01178
LeftToes  1.06247e-005 4.65869e-005 -8.65511e-006
788
root  12.7408 40.807 8.37211 40.2847 86.5708 38.4654
RightUpLeg  -6.92673 -10.5065 -9.07676
RightLeg  6.22684 -7.39365 3.23436
RightFoot  2.33455 -0.015595 0.262866
RightToes  0.000481921 0.542163 -0.142578
Spine  10.8334 -0.411239 8.13432
Spine1  -1.92145 1.73836 -9.23009
HEad  13.2056 0.109663 1.58902
LeftShoulder1  7.66295 -17.4977 -30.3948
LeftArm  -22.4468 -52.8097 -23.6803
LeftForeArm  38.9398 -51.4836 -12.1378
LeftHand  -0.25398 0.0180481 5.50724
RightShoulder  3.40125 11.1118 16.6099
RightArm  -11.4968 56.3749 44.9775
RightForeArm  -5.23487 35.2876 8.374
RightHand  -1.87485 9.73811 -14.8301
LeftUpLeg  -2.12792 5.89962 4.08898
LeftLeg  -1.0293 20.3037 -5.27935
LeftFoot  3.52394 0.260631 -2.16234
LeftToes  1.06247e-005 4.65869e-005 -8.65511e-006
789
root  13.0633 40.8122 8.34859 33.8962 86.36 31.9411
RightUpLeg  -6.27049 -10.3553 -8.95321
RightLeg  5.55649 -7.03676 3.35135
RightFoot  2.11861 -0.0154657 0.253671
RightToes  0.000481921 0.542163 -0.142578
Spine  9.97343 -0.186767 8.70686
Spine1  -0.779294 2.09878 -9.53581
HEad  11.6861 0.311096 1.51354
LeftShoulder1  8.2001 -16.9176 -34.0821
LeftArm  -23.406 -36.112 -24.2486
LeftForeArm  69.1754 -76.8761 -45.8111
LeftHand  -0.25398 0.0180481 5.50724
RightShoulder  3.6212 10.6225 19.1768
RightArm  -12.122 39.7452 42.547
RightForeArm  16.9125 67.6137 31.1532
RightHand  -1.32133 6.70927 -12.8215
LeftUpLeg  -1.93079 6.08674 4.3119
LeftLeg  -0.479919 20.4398 -5.10539
LeftFoot  2.84735 0.261762 -2.24197
LeftToes  1.06247e-005 4.65869e-005 -8.65511e-006
790
root  13.3995 40.81 8.35159 32.5749 86.5315 30.1652
RightUpLeg  -6.12449 -10.1885 -8.75255
RightLeg  5.4285 -7.28294 3.27
RightFoot  1.72833 -0.027521 0.343395
RightToes  0.000481921 0.542163 -0.142578
Spine  9.97103 -0.0751217 8.17993
Spine1  -0.808407 1.97255 -8.39192
HEad  9.07765 0.645142 0.967253
LeftShoulder1  8.32951 -15.6112 -37.4597
LeftArm  -22.9613 -15.4399 -23.3177
LeftForeArm  163.06 -74.619 -145.369
LeftHand  -0.25398 0.0180481 5.50724
RightShoulder  3.58758 9.36834 21.5807
RightArm  -10.924 20.7646 40.2284
RightForeArm  118.305 76.6255 128.941
RightHand  -0.387197 1.15171 -6.89075
LeftUpLeg  -2.23227 6.23946 4.49794
LeftLeg  0.262845 20.1842 -4.87267
LeftFoot  2.19148 0.25683 -2.27691
LeftToes  1.06247e-005 4.65869e-005 -8.65511e-006
791
root  13.7975 40.8116 8.37823 34.2059 86.7793 31.0088
RightUpLeg  -6.34248 -10.0807 -8.60104
RightLeg  5.55208 -7.68651 3.17022
RightFoot  1.19676 -0.0415026 0.451976
RightToes  0.000481921 0.542163 -0.142578
Spine  10.1083 -0.0206618 6.63291
Spine1  -1.84324 1.4635 -6.13518
HEad  6.65684 1.39657 0.45597
LeftShoulder1  8.12213 -13.4936 -41.464
LeftArm  -20.6605 7.41149 -19.6354
LeftForeArm  173.669 -61.7374 -162.545
LeftHand  -0.25398 0.0180481 5.50724
RightShoulder  3.48995 7.75842 24.8839
RightArm  -7.81507 -1.51476 37.4452
RightForeArm  154.125 58.5535 163.338
RightHand  -0.0364528 -2.02825 -1.23722
LeftUpLeg  -2.51931 6.26623 4.57024
LeftLeg  0.365109 19.9252 -4.8529
LeftFoot  1.70304 0.263701 -2.39752
LeftToes  1.06247e-005 4.65869e-005 -8.65511e-006
